<svg width="35" height="29" viewBox="0 0 35 29" fill="none" xmlns="http://www.w3.org/2000/svg">
<path fill-rule="evenodd" clip-rule="evenodd" d="M26.6591 21.3637C25.4918 21.3637 24.5455 22.31 24.5455 23.4773C24.5455 24.6446 25.4918 25.5909 26.6591 25.5909C27.8264 25.5909 28.7727 24.6446 28.7727 23.4773C28.7727 22.31 27.8264 21.3637 26.6591 21.3637ZM21.7273 23.4773C21.7273 20.7535 23.9353 18.5455 26.6591 18.5455C29.3829 18.5455 31.5909 20.7535 31.5909 23.4773C31.5909 26.2011 29.3829 28.4091 26.6591 28.4091C23.9353 28.4091 21.7273 26.2011 21.7273 23.4773Z" fill="black"/>
<path fill-rule="evenodd" clip-rule="evenodd" d="M8.34094 21.3637C7.17361 21.3637 6.2273 22.31 6.2273 23.4773C6.2273 24.6446 7.17361 25.5909 8.34094 25.5909C9.50827 25.5909 10.4546 24.6446 10.4546 23.4773C10.4546 22.31 9.50827 21.3637 8.34094 21.3637ZM3.40912 23.4773C3.40912 20.7535 5.61717 18.5455 8.34094 18.5455C11.0647 18.5455 13.2728 20.7535 13.2728 23.4773C13.2728 26.2011 11.0647 28.4091 8.34094 28.4091C5.61717 28.4091 3.40912 26.2011 3.40912 23.4773Z" fill="black"/>
<path fill-rule="evenodd" clip-rule="evenodd" d="M21.7273 8.68186C21.7273 7.90364 22.3582 7.27277 23.1364 7.27277H28.7727C29.1465 7.27277 29.5049 7.42122 29.7691 7.68548L33.9964 11.9128C34.2607 12.177 34.4091 12.5354 34.4091 12.9091V19.9546C34.4091 20.7328 33.7782 21.3637 33 21.3637H23.1364C22.3582 21.3637 21.7273 20.7328 21.7273 19.9546V8.68186ZM24.5455 10.0909V18.5455H31.5909V13.4928L28.1891 10.0909H24.5455Z" fill="black"/>
<path fill-rule="evenodd" clip-rule="evenodd" d="M0.590942 1.63639C0.590942 0.858166 1.22181 0.227295 2.00003 0.227295H23.1364C23.9146 0.227295 24.5455 0.858166 24.5455 1.63639V19.9546C24.5455 20.7328 23.9146 21.3637 23.1364 21.3637H2.00003C1.22181 21.3637 0.590942 20.7328 0.590942 19.9546V1.63639ZM3.40912 3.04548V18.5455H21.7273V3.04548H3.40912Z" fill="black"/>
</svg>
